<?xml version="1.0" encoding="iso-8859-1"?>

<svg height="40px" width="40px" version="1.1" id="Layer_1" xmlns="http://www.w3.org/2000/svg" xmlns:xlink="http://www.w3.org/1999/xlink" 
    viewBox="0 0 496 496" xml:space="preserve">
<path style="fill:#3D2525;" d="M280,71.2c0,4.8-4,8.8-8.8,8.8h-46.4c-4.8,0-8.8-4-8.8-8.8V8.8c0-4.8,4-8.8,8.8-8.8h46.4
	c4.8,0,8.8,4,8.8,8.8V71.2z"/>
<path style="fill:#190D0D;" d="M216,6.4c0-4,4-6.4,8.8-6.4h46.4c4.8,0,8.8,0,8.8,4.8v64.8c0,4.8-4,9.6-8.8,9.6"/>
<path style="fill:#D1D1D1;" d="M287.2,176c0-4.8,0.8-9.6,0.8-15.2c0-20.8,0-44-8-64V76c0-0.8,0-18.4,0-20l0,0l0,0h-64
	c0,0,0,4.8,0,6.4c0,3.2,0,0,0,0c0,0.8,0,12.8,0,13.6v20.8c-8,20-8.8,43.2-8.8,64c0,5.6,1.6,10.4,1.6,15.2
	c-29.6,13.6-48.8,43.2-48.8,78.4V448c0,47.2,35.2,48,82.4,48h11.2c47.2,0,82.4-0.8,82.4-48V254.4C336,219.2,316.8,189.6,287.2,176z"
	/>
<path style="fill:#BCBCBC;" d="M336,448V254.4c0-34.4-19.2-64.8-48.8-78.4c0-4.8,0.8-9.6,0.8-15.2c0-20.8,0-44-8-64V76
	c0-0.8,0-20,0-20l0,0l0,0h-64c0,0,0,5.6,0,7.2c0,3.2,0,0,0,0c0,0.8,0,12,0,12.8v20"/>
<path style="fill:#89063C;" d="M179.2,200c-14.4,8-19.2,32-19.2,54.4V448c0,47.2,35.2,48,82.4,48h11.2c47.2,0,82.4-0.8,82.4-48
	V254.4c0-22.4-5.6-46.4-19.2-54.4H179.2z"/>
<path style="fill:#6D0032;" d="M240,496h13.6c47.2,0,82.4-0.8,82.4-48V254.4c0-22.4-5.6-46.4-19.2-54.4H184"/>
<polygon style="fill:#3CC676;" points="304,319.2 248,264.8 192,319.2 192,404 248,426.4 304,404 "/>
<polyline style="fill:#00A057;" points="248,426.4 304,404 304,319.2 248,264.8 "/>
<path style="fill:#190D0D;" d="M283.2,392l-10.4-19.2c6.4-5.6,10.4-13.6,10.4-22.4c0-16.8-12-30.4-28.8-30.4h1.6v72H283.2z"/>
<path style="fill:#3D2525;" d="M212.8,392l10.4-19.2c-6.4-5.6-10.4-13.6-10.4-22.4c0-16.8,12-30.4,28.8-30.4H240v72H212.8z"/>
<path style="fill:#89063C;" d="M264,300c0,2.4-1.6,4-4,4h-24c-2.4,0-4-1.6-4-4l0,0c0-2.4,1.6-4,4-4h24C262.4,296,264,297.6,264,300
	L264,300z"/>
<g>
	<path style="fill:#3CC676;" d="M216,76v20.8c-8,18.4-8,39.2-8.8,55.2H288c-0.8-16,0-36.8-8-54.4V76.8c0-0.8,0-18.4,0-20l0,0l0,0
		h-64c0,0,0,4.8,0,6.4c0,3.2,0,0,0,0C216,63.2,216,74.4,216,76z"/>
</g>
<path style="fill:#00A057;" d="M232,152h56c-0.8-16,0-36.8-8-55.2V76c0-0.8,0-20,0-20c-0.8,0.8,0,0,0,0l0,0h-48"/>
<path style="fill:#A01353;" d="M312,196.8c0,1.6-1.6,3.2-3.2,3.2H187.2c-1.6,0-3.2-1.6-3.2-3.2v-1.6c0-1.6,1.6-3.2,3.2-3.2h121.6
	c1.6,0,3.2,1.6,3.2,3.2V196.8z"/>
<g>
	<path style="fill:#CC7592;" d="M176,460c0,2.4-1.6,4-4,4l0,0c-2.4,0-4-1.6-4-4V276c0-2.4,1.6-4,4-4l0,0c2.4,0,4,1.6,4,4V460z"/>
	<path style="fill:#CC7592;" d="M176,249.6c0,2.4-1.6,3.2-4,3.2l0,0c-2.4,0-4-1.6-4-4v-16c0-1.6,1.6-2.4,4-2.4l0,0
		c2.4,0,4,0.8,4,3.2V249.6z"/>
</g>
<rect x="216" y="24" style="fill:#00A057;" width="64" height="16"/>
<g>
	<circle style="fill:#190D0D;" cx="248" cy="82.4" r="6.4"/>
	<circle style="fill:#190D0D;" cx="248" cy="108" r="6.4"/>
	<circle style="fill:#190D0D;" cx="248" cy="134.4" r="6.4"/>
</g>
<path style="fill:#6D0032;" d="M264,4c0,2.4-1.6,4-4,4h-32c-2.4,0-4-1.6-4-4l0,0c0-2.4,1.6-4,4-4h32C262.4,0,264,1.6,264,4L264,4z"
	/>
</svg>